<svg xmlns="http://www.w3.org/2000/svg" viewBox="0 0 480 300" width="480" height="300"><defs>
<linearGradient id="bg" x1="0" y1="0" x2="1" y2="1"><stop offset="0" stop-color="#0a1c30"/><stop offset="1" stop-color="#173f63"/></linearGradient>
<linearGradient id="tealg" x1="0" y1="0" x2="1" y2="0"><stop offset="0" stop-color="#2fb8ac"/><stop offset="1" stop-color="#7fe0d4"/></linearGradient>
<linearGradient id="tealv" x1="0" y1="0" x2="0" y2="1"><stop offset="0" stop-color="#7fe0d4"/><stop offset="1" stop-color="#2fb8ac"/></linearGradient>
<linearGradient id="amberg" x1="0" y1="0" x2="1" y2="0"><stop offset="0" stop-color="#f2a541"/><stop offset="1" stop-color="#ffc978"/></linearGradient>
<linearGradient id="panel" x1="0" y1="0" x2="0" y2="1"><stop offset="0" stop-color="#ffffff" stop-opacity=".11"/><stop offset="1" stop-color="#ffffff" stop-opacity=".03"/></linearGradient>
<linearGradient id="areag" x1="0" y1="0" x2="0" y2="1"><stop offset="0" stop-color="#2fb8ac" stop-opacity=".5"/><stop offset="1" stop-color="#2fb8ac" stop-opacity="0"/></linearGradient>
<radialGradient id="glow" cx=".5" cy=".5" r=".5"><stop offset="0" stop-color="#7fe0d4" stop-opacity=".30"/><stop offset="1" stop-color="#7fe0d4" stop-opacity="0"/></radialGradient>
<radialGradient id="glowA" cx=".5" cy=".5" r=".5"><stop offset="0" stop-color="#f2a541" stop-opacity=".35"/><stop offset="1" stop-color="#f2a541" stop-opacity="0"/></radialGradient>
<pattern id="grid" width="30" height="30" patternUnits="userSpaceOnUse"><path d="M30 0H0V30" fill="none" stroke="#7fe0d4" stroke-opacity=".07"/></pattern>
<filter id="shadow" x="-20%" y="-20%" width="140%" height="160%"><feDropShadow dx="0" dy="8" stdDeviation="7" flood-color="#000" flood-opacity=".35"/></filter>
</defs><rect width="480" height="300" fill="url(#bg)"/><rect width="480" height="300" fill="url(#grid)"/><circle cx="250" cy="140" r="200" fill="url(#glow)"/><rect x="24" y="34" width="170" height="232" rx="10" fill="#0d2540" filter="url(#shadow)"/><rect x="24" y="34" width="170" height="232" rx="10" fill="url(#panel)" stroke="#7fe0d4" stroke-width="1.2" stroke-opacity="0.4" /><rect x="40" y="50" width="44" height="14" rx="7" fill="#f2a541" fill-opacity="0.95" /><rect x="40" y="78" width="112" height="7" rx="3.5" fill="#ffffff" fill-opacity="0.85" /><rect x="40" y="92" width="72" height="4" rx="2.0" fill="#7fe0d4" fill-opacity="0.45" /><line x1="38" y1="108" x2="180" y2="108" stroke="#7fe0d4" stroke-width="1" stroke-opacity="0.25" stroke-linecap="round"/><rect x="40" y="121" width="14" height="14" rx="3" fill="#2fb8ac" fill-opacity="0.3" /><rect x="40" y="121" width="14" height="14" rx="3" fill="none" stroke="#7fe0d4" stroke-width="1.6" /><path d="M43 128 l3 3.2 l5 -6.4" fill="none" stroke="#7fe0d4" stroke-width="1.8" stroke-linecap="round" stroke-linejoin="round" /><rect x="64" y="122" width="84" height="5" rx="2.5" fill="#ffffff" fill-opacity="0.65" /><rect x="64" y="132" width="56" height="4" rx="2.0" fill="#7fe0d4" fill-opacity="0.35" /><rect x="40" y="148" width="14" height="14" rx="3" fill="#2fb8ac" fill-opacity="0.3" /><rect x="40" y="148" width="14" height="14" rx="3" fill="none" stroke="#7fe0d4" stroke-width="1.6" /><path d="M43 155 l3 3.2 l5 -6.4" fill="none" stroke="#7fe0d4" stroke-width="1.8" stroke-linecap="round" stroke-linejoin="round" /><rect x="64" y="149" width="74" height="5" rx="2.5" fill="#ffffff" fill-opacity="0.65" /><rect x="64" y="159" width="56" height="4" rx="2.0" fill="#7fe0d4" fill-opacity="0.35" /><rect x="40" y="175" width="14" height="14" rx="3" fill="#2fb8ac" fill-opacity="0.3" /><rect x="40" y="175" width="14" height="14" rx="3" fill="none" stroke="#7fe0d4" stroke-width="1.6" /><path d="M43 182 l3 3.2 l5 -6.4" fill="none" stroke="#7fe0d4" stroke-width="1.8" stroke-linecap="round" stroke-linejoin="round" /><rect x="64" y="176" width="64" height="5" rx="2.5" fill="#ffffff" fill-opacity="0.65" /><rect x="64" y="186" width="56" height="4" rx="2.0" fill="#7fe0d4" fill-opacity="0.35" /><rect x="40" y="202" width="14" height="14" rx="3" fill="none" stroke="#7fe0d4" stroke-width="1.4" stroke-opacity="0.45" stroke-dasharray="2 3" /><rect x="64" y="203" width="84" height="5" rx="2.5" fill="#ffffff" fill-opacity="0.35" /><rect x="64" y="213" width="56" height="4" rx="2.0" fill="#7fe0d4" fill-opacity="0.2" /><rect x="40" y="229" width="14" height="14" rx="3" fill="none" stroke="#7fe0d4" stroke-width="1.4" stroke-opacity="0.45" stroke-dasharray="2 3" /><rect x="64" y="230" width="74" height="5" rx="2.5" fill="#ffffff" fill-opacity="0.35" /><rect x="64" y="240" width="56" height="4" rx="2.0" fill="#7fe0d4" fill-opacity="0.2" /><path d="M40 258 q8 -9 16 0 t16 0 t16 0" fill="none" stroke="#7fe0d4" stroke-width="1.8" stroke-linecap="round" stroke-linejoin="round" stroke-opacity="0.6" /><rect x="120" y="256" width="56" height="4" rx="2.0" fill="#7fe0d4" fill-opacity="0.3" /><rect x="214" y="34" width="242" height="150" rx="10" fill="#0d2540" filter="url(#shadow)"/><rect x="214" y="34" width="242" height="150" rx="10" fill="url(#panel)" stroke="#7fe0d4" stroke-width="1.2" stroke-opacity="0.4" /><line x1="215" y1="58" x2="455" y2="58" stroke="#7fe0d4" stroke-width="1" stroke-opacity="0.22" stroke-linecap="round"/><circle cx="228" cy="46.0" r="3" fill="#f2a541"/><circle cx="240" cy="46.0" r="3" fill="#7fe0d4" fill-opacity="0.8"/><circle cx="252" cy="46.0" r="3" fill="#2fb8ac" fill-opacity="0.6"/><rect x="226" y="70" width="48" height="102" rx="4" fill="none" stroke="#7fe0d4" stroke-width="1.3" stroke-opacity="0.5" stroke-dasharray="4 3" /><rect x="234" y="82" width="32" height="5" rx="2.5" fill="#ffffff" fill-opacity="0.5" /><rect x="234" y="100" width="24" height="5" rx="2.5" fill="#ffffff" fill-opacity="0.5" /><rect x="234" y="118" width="32" height="5" rx="2.5" fill="#ffffff" fill-opacity="0.5" /><rect x="234" y="136" width="24" height="5" rx="2.5" fill="#ffffff" fill-opacity="0.5" /><rect x="284" y="70" width="160" height="26" rx="4" fill="url(#tealg)" fill-opacity="0.32" stroke="#7fe0d4" stroke-width="1.2" stroke-opacity="0.6" /><rect x="294" y="80" width="70" height="6" rx="3.0" fill="#ffffff" fill-opacity="0.8" /><rect x="284" y="106" width="76" height="66" rx="4" fill="none" stroke="#7fe0d4" stroke-width="1.3" stroke-opacity="0.5" stroke-dasharray="4 3" /><rect x="368" y="106" width="76" height="66" rx="4" fill="none" stroke="#7fe0d4" stroke-width="1.3" stroke-opacity="0.5" stroke-dasharray="4 3" /><line x1="284" y1="106" x2="360" y2="172" stroke="#7fe0d4" stroke-width="1" stroke-opacity="0.22" stroke-linecap="round"/><line x1="360" y1="106" x2="284" y2="172" stroke="#7fe0d4" stroke-width="1" stroke-opacity="0.22" stroke-linecap="round"/><rect x="378" y="118" width="46" height="5" rx="2.5" fill="#ffffff" fill-opacity="0.6" /><rect x="378" y="130" width="56" height="4" rx="2.0" fill="#7fe0d4" fill-opacity="0.4" /><rect x="378" y="140" width="38" height="4" rx="2.0" fill="#7fe0d4" fill-opacity="0.4" /><rect x="378" y="152" width="34" height="12" rx="6" fill="url(#amberg)" /><circle cx="444" cy="70" r="8" fill="#f2a541"/><circle cx="444" cy="70" r="2.4" fill="#0a1c30"/><line x1="214" y1="200" x2="456" y2="200" stroke="#7fe0d4" stroke-width="1.2" stroke-opacity="0.6" stroke-linecap="round"/><line x1="214" y1="194" x2="214" y2="206" stroke="#7fe0d4" stroke-width="1.4" stroke-opacity="0.8" stroke-linecap="round"/><line x1="456" y1="194" x2="456" y2="206" stroke="#7fe0d4" stroke-width="1.4" stroke-opacity="0.8" stroke-linecap="round"/><path d="M222 196 l-8 4 l8 4 M448 196 l8 4 l-8 4" fill="none" stroke="#7fe0d4" stroke-width="1.2" stroke-linecap="round" stroke-linejoin="round" stroke-opacity="0.8" /><rect x="310" y="194" width="50" height="12" rx="6" fill="#0d2540" stroke="#7fe0d4" stroke-width="1" stroke-opacity="0.5" /><rect x="322" y="198.5" width="26" height="3" rx="1.5" fill="#ffffff" fill-opacity="0.7" /><path d="M258 242 H300" fill="none" stroke="#7fe0d4" stroke-width="1.8" stroke-linecap="round" stroke-linejoin="round" stroke-dasharray="4 4" /><path d="M294 237 l6 5 l-6 5" fill="none" stroke="#7fe0d4" stroke-width="1.8" stroke-linecap="round" stroke-linejoin="round" /><path d="M352 242 H396" fill="none" stroke="#7fe0d4" stroke-width="1.8" stroke-linecap="round" stroke-linejoin="round" stroke-dasharray="4 4" /><path d="M390 237 l6 5 l-6 5" fill="none" stroke="#7fe0d4" stroke-width="1.8" stroke-linecap="round" stroke-linejoin="round" /><circle cx="244" cy="242" r="15" fill="#0d2540" stroke="#7fe0d4" stroke-width="2"/><circle cx="244" cy="242" r="4" fill="#7fe0d4"/><rect x="300" y="224" width="52" height="36" rx="8" fill="#0d2540" stroke="#7fe0d4" stroke-width="2" /><rect x="310" y="236" width="32" height="5" rx="2.5" fill="#ffffff" fill-opacity="0.75" /><rect x="310" y="246" width="20" height="4" rx="2.0" fill="#7fe0d4" fill-opacity="0.45" /><circle cx="420" cy="242" r="17" fill="#f2a541" fill-opacity="0.16"/><circle cx="420" cy="242" r="15" fill="none" stroke="#f2a541" stroke-width="2.2"/><path d="M412 242 l6 6 l10 -12" fill="none" stroke="#f2a541" stroke-width="2.6" stroke-linecap="round" stroke-linejoin="round" /></svg>