<svg xmlns="http://www.w3.org/2000/svg" viewBox="0 0 480 300" width="480" height="300"><defs>
<linearGradient id="bg" x1="0" y1="0" x2="1" y2="1"><stop offset="0" stop-color="#0a1c30"/><stop offset="1" stop-color="#173f63"/></linearGradient>
<linearGradient id="tealg" x1="0" y1="0" x2="1" y2="0"><stop offset="0" stop-color="#2fb8ac"/><stop offset="1" stop-color="#7fe0d4"/></linearGradient>
<linearGradient id="tealv" x1="0" y1="0" x2="0" y2="1"><stop offset="0" stop-color="#7fe0d4"/><stop offset="1" stop-color="#2fb8ac"/></linearGradient>
<linearGradient id="amberg" x1="0" y1="0" x2="1" y2="0"><stop offset="0" stop-color="#f2a541"/><stop offset="1" stop-color="#ffc978"/></linearGradient>
<linearGradient id="panel" x1="0" y1="0" x2="0" y2="1"><stop offset="0" stop-color="#ffffff" stop-opacity=".11"/><stop offset="1" stop-color="#ffffff" stop-opacity=".03"/></linearGradient>
<linearGradient id="areag" x1="0" y1="0" x2="0" y2="1"><stop offset="0" stop-color="#2fb8ac" stop-opacity=".5"/><stop offset="1" stop-color="#2fb8ac" stop-opacity="0"/></linearGradient>
<radialGradient id="glow" cx=".5" cy=".5" r=".5"><stop offset="0" stop-color="#7fe0d4" stop-opacity=".30"/><stop offset="1" stop-color="#7fe0d4" stop-opacity="0"/></radialGradient>
<radialGradient id="glowA" cx=".5" cy=".5" r=".5"><stop offset="0" stop-color="#f2a541" stop-opacity=".35"/><stop offset="1" stop-color="#f2a541" stop-opacity="0"/></radialGradient>
<pattern id="grid" width="30" height="30" patternUnits="userSpaceOnUse"><path d="M30 0H0V30" fill="none" stroke="#7fe0d4" stroke-opacity=".07"/></pattern>
<filter id="shadow" x="-20%" y="-20%" width="140%" height="160%"><feDropShadow dx="0" dy="8" stdDeviation="7" flood-color="#000" flood-opacity=".35"/></filter>
</defs><rect width="480" height="300" fill="url(#bg)"/><rect width="480" height="300" fill="url(#grid)"/><circle cx="350" cy="150" r="170" fill="url(#glow)"/><rect x="24" y="32" width="208" height="232" rx="10" fill="#0d2540" filter="url(#shadow)"/><rect x="24" y="32" width="208" height="232" rx="10" fill="url(#panel)" stroke="#7fe0d4" stroke-width="1.2" stroke-opacity="0.4" /><line x1="25" y1="56" x2="231" y2="56" stroke="#7fe0d4" stroke-width="1" stroke-opacity="0.22" stroke-linecap="round"/><circle cx="38" cy="44.0" r="3" fill="#f2a541"/><circle cx="50" cy="44.0" r="3" fill="#7fe0d4" fill-opacity="0.8"/><circle cx="62" cy="44.0" r="3" fill="#2fb8ac" fill-opacity="0.6"/><rect x="80" y="39" width="56" height="5" rx="2.5" fill="#ffffff" fill-opacity="0.5" /><circle cx="48" cy="81" r="10" fill="#2fb8ac" fill-opacity="0.25"/><circle cx="48" cy="81" r="10" fill="none" stroke="#7fe0d4" stroke-width="1.8"/><path d="M43 81 l4 4 l7 -8" fill="none" stroke="#7fe0d4" stroke-width="2.2" stroke-linecap="round" stroke-linejoin="round" /><rect x="68" y="74" width="90" height="5" rx="2.5" fill="#ffffff" fill-opacity="0.7" /><rect x="68" y="85" width="54" height="4" rx="2.0" fill="#7fe0d4" fill-opacity="0.4" /><circle cx="48" cy="117" r="10" fill="#2fb8ac" fill-opacity="0.25"/><circle cx="48" cy="117" r="10" fill="none" stroke="#7fe0d4" stroke-width="1.8"/><path d="M43 117 l4 4 l7 -8" fill="none" stroke="#7fe0d4" stroke-width="2.2" stroke-linecap="round" stroke-linejoin="round" /><rect x="68" y="110" width="78" height="5" rx="2.5" fill="#ffffff" fill-opacity="0.7" /><rect x="68" y="121" width="54" height="4" rx="2.0" fill="#7fe0d4" fill-opacity="0.4" /><rect x="25" y="136" width="206" height="34" rx="0" fill="#f2a541" fill-opacity="0.12" /><circle cx="48" cy="153" r="10" fill="none" stroke="#f2a541" stroke-width="2.4"/><line x1="48" y1="148" x2="48" y2="154" stroke="#f2a541" stroke-width="2.6" stroke-opacity="1" stroke-linecap="round"/><circle cx="48" cy="159" r="1.5" fill="#f2a541"/><rect x="68" y="146" width="100" height="5" rx="2.5" fill="#f2a541" fill-opacity="0.9" /><rect x="68" y="157" width="54" height="4" rx="2.0" fill="#f2a541" fill-opacity="0.5" /><circle cx="48" cy="189" r="10" fill="#2fb8ac" fill-opacity="0.25"/><circle cx="48" cy="189" r="10" fill="none" stroke="#7fe0d4" stroke-width="1.8"/><path d="M43 189 l4 4 l7 -8" fill="none" stroke="#7fe0d4" stroke-width="2.2" stroke-linecap="round" stroke-linejoin="round" /><rect x="68" y="182" width="84" height="5" rx="2.5" fill="#ffffff" fill-opacity="0.7" /><rect x="68" y="193" width="54" height="4" rx="2.0" fill="#7fe0d4" fill-opacity="0.4" /><circle cx="48" cy="225" r="10" fill="#2fb8ac" fill-opacity="0.25"/><circle cx="48" cy="225" r="10" fill="none" stroke="#7fe0d4" stroke-width="1.8"/><path d="M43 225 l4 4 l7 -8" fill="none" stroke="#7fe0d4" stroke-width="2.2" stroke-linecap="round" stroke-linejoin="round" /><rect x="68" y="218" width="68" height="5" rx="2.5" fill="#ffffff" fill-opacity="0.7" /><rect x="68" y="229" width="54" height="4" rx="2.0" fill="#7fe0d4" fill-opacity="0.4" /><path d="M352 57.0 L411.0 78.0 V135.0 C411.0 177.0 384.45 198.0 352 207.0 C319.55 198.0 293.0 177.0 293.0 135.0 V78.0 Z" fill="url(#panel)" stroke="#7fe0d4" stroke-width="2.6" stroke-linecap="round" stroke-linejoin="round" filter="url(#shadow)"/><path d="M352 71.0 L400.0 88.08 V134.44 C400.0 168.6 378.4 185.68 352 193.0 C325.6 185.68 304.0 168.6 304.0 134.44 V88.08 Z" fill="none" stroke="#7fe0d4" stroke-width="1.2" stroke-linecap="round" stroke-linejoin="round" stroke-opacity="0.3" /><path d="M331.0 138 L346.0 154.5 L376.0 120.0" fill="none" stroke="#7fe0d4" stroke-width="9" stroke-linecap="round" stroke-linejoin="round" /><line x1="272" y1="104" x2="432" y2="104" stroke="#f2a541" stroke-width="2" stroke-opacity="0.95" stroke-linecap="round" stroke-dasharray="6 5"/><rect x="272" y="100" width="160" height="8" rx="0" fill="#f2a541" fill-opacity="0.1" /><circle cx="408" cy="216" r="30" fill="#0a1c30" fill-opacity="0.9" stroke="#ffffff" stroke-width="4.5"/><line x1="430" y1="238" x2="456" y2="264" stroke="#ffffff" stroke-width="7" stroke-opacity="1" stroke-linecap="round"/><ellipse cx="408" cy="219" rx="7" ry="9" fill="#f2a541"/><circle cx="408" cy="207" r="4.5" fill="#f2a541"/><line x1="402" y1="213" x2="395" y2="210" stroke="#f2a541" stroke-width="2" stroke-opacity="1" stroke-linecap="round"/><line x1="402" y1="220" x2="395" y2="219" stroke="#f2a541" stroke-width="2" stroke-opacity="1" stroke-linecap="round"/><line x1="402" y1="227" x2="395" y2="226" stroke="#f2a541" stroke-width="2" stroke-opacity="1" stroke-linecap="round"/><line x1="414" y1="213" x2="421" y2="210" stroke="#f2a541" stroke-width="2" stroke-opacity="1" stroke-linecap="round"/><line x1="414" y1="220" x2="421" y2="219" stroke="#f2a541" stroke-width="2" stroke-opacity="1" stroke-linecap="round"/><line x1="414" y1="227" x2="421" y2="226" stroke="#f2a541" stroke-width="2" stroke-opacity="1" stroke-linecap="round"/></svg>