<svg xmlns="http://www.w3.org/2000/svg" viewBox="0 0 480 300" width="480" height="300"><defs>
<linearGradient id="bg" x1="0" y1="0" x2="1" y2="1"><stop offset="0" stop-color="#0a1c30"/><stop offset="1" stop-color="#173f63"/></linearGradient>
<linearGradient id="tealg" x1="0" y1="0" x2="1" y2="0"><stop offset="0" stop-color="#2fb8ac"/><stop offset="1" stop-color="#7fe0d4"/></linearGradient>
<linearGradient id="tealv" x1="0" y1="0" x2="0" y2="1"><stop offset="0" stop-color="#7fe0d4"/><stop offset="1" stop-color="#2fb8ac"/></linearGradient>
<linearGradient id="amberg" x1="0" y1="0" x2="1" y2="0"><stop offset="0" stop-color="#f2a541"/><stop offset="1" stop-color="#ffc978"/></linearGradient>
<linearGradient id="panel" x1="0" y1="0" x2="0" y2="1"><stop offset="0" stop-color="#ffffff" stop-opacity=".11"/><stop offset="1" stop-color="#ffffff" stop-opacity=".03"/></linearGradient>
<linearGradient id="areag" x1="0" y1="0" x2="0" y2="1"><stop offset="0" stop-color="#2fb8ac" stop-opacity=".5"/><stop offset="1" stop-color="#2fb8ac" stop-opacity="0"/></linearGradient>
<radialGradient id="glow" cx=".5" cy=".5" r=".5"><stop offset="0" stop-color="#7fe0d4" stop-opacity=".30"/><stop offset="1" stop-color="#7fe0d4" stop-opacity="0"/></radialGradient>
<radialGradient id="glowA" cx=".5" cy=".5" r=".5"><stop offset="0" stop-color="#f2a541" stop-opacity=".35"/><stop offset="1" stop-color="#f2a541" stop-opacity="0"/></radialGradient>
<pattern id="grid" width="30" height="30" patternUnits="userSpaceOnUse"><path d="M30 0H0V30" fill="none" stroke="#7fe0d4" stroke-opacity=".07"/></pattern>
<filter id="shadow" x="-20%" y="-20%" width="140%" height="160%"><feDropShadow dx="0" dy="8" stdDeviation="7" flood-color="#000" flood-opacity=".35"/></filter>
</defs><rect width="480" height="300" fill="url(#bg)"/><rect width="480" height="300" fill="url(#grid)"/><circle cx="190" cy="150" r="190" fill="url(#glow)"/><ellipse cx="392" cy="208" rx="24" ry="6" fill="none" stroke="#7fe0d4" stroke-opacity="0.38" stroke-width="1.4"/><ellipse cx="392" cy="208" rx="44" ry="11" fill="none" stroke="#7fe0d4" stroke-opacity="0.28" stroke-width="1.4"/><ellipse cx="392" cy="208" rx="64" ry="16" fill="none" stroke="#7fe0d4" stroke-opacity="0.18" stroke-width="1.4"/><rect x="30" y="34" width="296" height="216" rx="10" fill="#0d2540" filter="url(#shadow)"/><rect x="30" y="34" width="296" height="216" rx="10" fill="url(#panel)" stroke="#7fe0d4" stroke-width="1.2" stroke-opacity="0.4" /><line x1="31" y1="58" x2="325" y2="58" stroke="#7fe0d4" stroke-width="1" stroke-opacity="0.22" stroke-linecap="round"/><circle cx="44" cy="46.0" r="3" fill="#f2a541"/><circle cx="56" cy="46.0" r="3" fill="#7fe0d4" fill-opacity="0.8"/><circle cx="68" cy="46.0" r="3" fill="#2fb8ac" fill-opacity="0.6"/><circle cx="58" cy="84" r="13" fill="#f2a541" fill-opacity="0.9"/><rect x="82" y="76" width="96" height="6" rx="3.0" fill="#ffffff" fill-opacity="0.75" /><rect x="82" y="90" width="64" height="4" rx="2.0" fill="#7fe0d4" fill-opacity="0.45" /><rect x="50" y="116" width="210" height="8" rx="4.0" fill="#ffffff" fill-opacity="0.8" /><rect x="50" y="140" width="232" height="4" rx="2.0" fill="#7fe0d4" fill-opacity="0.38" /><rect x="50" y="154" width="208" height="4" rx="2.0" fill="#7fe0d4" fill-opacity="0.38" /><rect x="50" y="168" width="160" height="4" rx="2.0" fill="#7fe0d4" fill-opacity="0.38" /><rect x="48" y="190" width="158" height="28" rx="6" fill="#f2a541" fill-opacity="0.14" stroke="#f2a541" stroke-width="1.4" stroke-opacity="0.8" stroke-dasharray="4 3" /><rect x="60" y="202" width="118" height="5" rx="2.5" fill="#f2a541" fill-opacity="0.95" /><path d="M186 214 l0 17 l5 -4 l4 9 l4 -2 l-4 -9 l7 -1 z" fill="#ffffff" stroke="#0a1c30" stroke-width="1.4" stroke-linecap="round" stroke-linejoin="round" /><path d="M318 32 L340 69 H296 Z" fill="url(#amberg)" stroke="#f2a541" stroke-width="3" stroke-linecap="round" stroke-linejoin="round" filter="url(#shadow)"/><line x1="318" y1="46" x2="318" y2="57" stroke="#0a1c30" stroke-width="3.2" stroke-opacity="1" stroke-linecap="round"/><circle cx="318" cy="63" r="1.9" fill="#0a1c30"/><path d="M392 6 V132 A26 26 0 1 1 340 132 V120" fill="none" stroke="#ffffff" stroke-width="4.5" stroke-linecap="round" stroke-linejoin="round" /><path d="M340 121 l-8 -9" fill="none" stroke="#ffffff" stroke-width="4.5" stroke-linecap="round" stroke-linejoin="round" /><circle cx="392" cy="6" r="4" fill="#ffffff"/><rect x="349" y="118" width="34" height="24" rx="3" fill="#0d2540" stroke="#f2a541" stroke-width="2" /><path d="M350 120 L366.0 131.92 L382 120" fill="none" stroke="#f2a541" stroke-width="2" stroke-linecap="round" stroke-linejoin="round" /></svg>